<svg version="1.1" id="Layer_1" xmlns="http://www.w3.org/2000/svg"
     xmlns:xlink="http://www.w3.org/1999/xlink" x="0px" y="0px"
     width="100%" viewBox="0 0 5168 800" enable-background="new 0 0 5168 800" xml:space="preserve">
<path fill="#FFFFFF" opacity="1.000000" stroke="none"
      d="
M1000.190918,468.187988
	C980.194641,493.279663 960.816406,518.432495 940.441528,542.750183
	C905.791443,584.105774 867.650452,621.815613 822.226562,651.540161
	C788.258850,673.768127 751.701721,689.865662 711.586365,696.856506
	C656.633179,706.433289 603.841125,698.749207 553.224365,675.491760
	C514.786865,657.830505 481.264709,633.075317 450.332489,604.524658
	C411.770172,568.931335 378.817688,528.409241 346.704285,487.124207
	C331.590210,467.693512 316.155151,448.512756 300.920013,429.175812
	C281.575317,404.622986 256.113861,389.228271 226.979797,379.030701
	C195.460098,367.998077 163.111923,360.429260 130.217575,355.059692
	C108.115463,351.451813 85.963562,348.148926 63.530258,344.662354
	C65.097992,339.563049 69.065849,336.683960 73.464401,334.932312
	C84.222549,330.647980 94.919579,325.651947 106.134552,323.186523
	C131.214188,317.673218 156.489151,312.825104 181.881058,309.016174
	C209.144150,304.926605 236.597473,301.995911 264.033020,299.199554
	C286.370087,296.922882 308.789398,295.378906 331.197479,293.890381
	C363.251160,291.761139 395.315552,289.733612 427.398560,288.125366
	C453.176941,286.833160 478.984924,286.040558 504.788635,285.366852
	C535.088440,284.575806 565.395569,283.957550 595.703552,283.620697
	C632.017334,283.217072 668.340454,282.718964 704.650269,283.114136
	C754.442383,283.656097 804.236267,284.647034 854.009521,286.117798
	C889.783875,287.174957 925.544983,289.002472 961.276428,291.095123
	C993.163391,292.962616 1025.049316,295.155121 1056.847778,298.141266
	C1088.923340,301.153473 1120.964478,304.777802 1152.883911,309.135254
	C1183.087524,313.258453 1213.253662,318.093903 1242.283569,327.910156
	C1248.971802,330.171692 1255.428955,333.308289 1261.651489,336.672638
	C1264.662231,338.300537 1266.883423,341.388489 1270.398315,344.696411
	C1254.223022,346.986816 1239.625366,348.868774 1225.089600,351.146423
	C1179.164307,358.342407 1133.669067,367.110657 1090.335815,384.903625
	C1064.790894,395.392609 1044.591431,412.251556 1027.647583,433.560699
	C1018.552551,444.998810 1009.456299,456.435913 1000.190918,468.187988
M904.929199,422.449493
	C906.794067,408.492920 908.302795,394.518463 907.577881,380.053101
	C746.323181,386.760529 585.592346,386.946014 424.429504,380.368774
	C424.429504,383.365448 424.228912,385.522736 424.461365,387.632324
	C426.278137,404.119019 426.839355,420.882721 430.290436,437.026001
	C443.282471,497.799103 475.512085,546.628784 526.086670,582.513000
	C582.048523,622.219604 644.455811,635.735474 711.923584,622.846191
	C775.748230,610.652893 826.263672,577.126709 863.952393,524.334717
	C885.625977,493.975677 898.869873,460.091705 904.929199,422.449493
z"/>
    <path fill="#FFFFFF" opacity="1.000000" stroke="none"
          d="
M2936.029053,376.000000
	C2936.029053,398.497192 2936.296143,420.498322 2935.971191,442.490723
	C2935.367676,483.332794 2923.341309,520.245422 2896.627686,551.657166
	C2872.013428,580.600830 2840.631104,598.279724 2803.366943,604.961487
	C2790.843506,607.207031 2777.929688,608.000488 2765.181152,608.126648
	C2729.358154,608.481079 2693.502197,608.978210 2657.708496,607.853149
	C2618.454590,606.619263 2583.485107,592.880798 2554.227295,566.281555
	C2525.551514,540.211548 2508.375488,507.755798 2502.821533,469.346100
	C2501.611816,460.978333 2500.717529,452.483887 2500.675049,444.042786
	C2500.517822,412.717499 2499.875488,381.354553 2501.109863,350.072571
	C2502.638428,311.331238 2516.681396,277.059143 2542.773682,248.101471
	C2569.310791,218.649704 2602.818359,202.093857 2641.663574,196.163773
	C2652.141602,194.564148 2662.876465,194.186630 2673.500977,194.092560
	C2703.494873,193.826920 2733.492676,193.983673 2763.488770,194.004242
	C2792.739990,194.024307 2820.961670,198.960526 2847.202148,212.447998
	C2882.566406,230.624939 2907.982422,258.049530 2923.159180,294.923737
	C2933.807617,320.795502 2936.767822,347.838470 2936.029053,376.000000
M2671.507324,267.028839
	C2652.153564,266.539276 2633.686523,270.210358 2616.994385,280.215454
	C2587.061279,298.157257 2573.913086,325.784302 2573.213623,359.771851
	C2572.699463,384.758118 2572.940674,409.765289 2573.203125,434.759399
	C2573.298828,443.873230 2573.708252,453.098633 2575.229492,462.060028
	C2579.023682,484.409302 2589.917236,502.836151 2608.025146,516.689758
	C2625.724365,530.230957 2646.150146,535.660828 2668.091797,535.776489
	C2701.253418,535.951294 2734.416748,535.870728 2767.578857,535.774048
	C2773.058350,535.758118 2778.580811,535.436279 2784.006836,534.695984
	C2830.495850,528.352356 2862.610840,491.864227 2862.948486,444.818420
	C2863.158936,415.490448 2863.144287,386.158386 2862.908691,356.830719
	C2862.761230,338.460724 2857.473389,321.357697 2847.174072,306.213593
	C2829.226318,279.822601 2803.091553,267.939789 2771.988525,267.233887
	C2738.842773,266.481628 2705.667480,267.041687 2671.507324,267.028839
z"/>
    <path fill="#FFFFFF" opacity="1.000000" stroke="none"
          d="
M4447.594727,518.592468
	C4423.219238,566.328003 4384.651855,594.784058 4332.698242,604.954651
	C4321.040039,607.236877 4308.940430,608.018433 4297.031250,608.125916
	C4260.043457,608.459900 4222.956055,609.789917 4186.079102,607.701294
	C4123.153320,604.137451 4075.965820,574.173157 4046.941650,517.466980
	C4035.003174,494.141876 4029.970703,469.037323 4029.861084,442.951935
	C4029.737061,413.458771 4029.189697,383.943604 4030.062988,354.474670
	C4032.253662,280.575470 4079.674072,217.039261 4156.077637,199.207016
	C4171.306641,195.652649 4187.336914,194.616867 4203.042969,194.219696
	C4233.018555,193.461761 4263.026367,194.018311 4293.020996,193.994919
	C4329.391113,193.966537 4363.502441,202.068329 4393.914551,222.716354
	C4431.613281,248.311096 4453.975586,284.071716 4461.988281,328.662476
	C4464.180176,340.856110 4464.837891,353.433685 4465.040039,365.853943
	C4465.468750,392.174591 4465.295410,418.509064 4465.067383,444.835205
	C4464.844238,470.575531 4459.222168,495.127838 4447.594727,518.592468
M4102.270508,434.472595
	C4102.270508,436.638580 4102.220215,438.805939 4102.278809,440.970337
	C4102.861816,462.491425 4107.548340,482.752411 4120.942383,500.209686
	C4138.867188,523.572815 4163.343262,534.913452 4192.076172,535.444397
	C4231.692871,536.176514 4271.385742,536.214478 4310.959961,534.529480
	C4336.001953,533.463135 4357.114746,521.603638 4372.898438,501.577423
	C4387.163574,483.477386 4392.453125,462.328064 4392.671387,439.755035
	C4392.919922,414.099426 4392.891602,388.438171 4392.678711,362.781921
	C4392.502441,341.572784 4387.748047,321.490448 4375.059082,304.105103
	C4356.899414,279.225525 4331.417480,267.852448 4301.294922,267.219788
	C4268.486816,266.530731 4235.654297,266.980743 4202.832031,267.076782
	C4195.856934,267.097168 4188.812012,267.215729 4181.923340,268.178680
	C4157.254395,271.627350 4136.516113,282.384827 4121.132324,302.398682
	C4107.291016,320.405548 4102.437988,341.281433 4102.302734,363.504700
	C4102.160156,386.829315 4102.270508,410.155487 4102.270508,434.472595
z"/>
    <path fill="#FFFFFF" opacity="1.000000" stroke="none"
          d="
M4799.973633,468.021973
	C4775.201660,442.140503 4750.678711,416.509857 4726.156250,390.879364
	C4704.972656,368.738678 4683.786621,346.600281 4662.610840,324.452240
	C4661.028320,322.797089 4659.516602,321.074738 4657.231445,318.573181
	C4657.231445,413.947113 4657.231445,508.156067 4657.231445,602.682739
	C4632.773438,602.682739 4608.698730,602.682739 4584.199219,602.682739
	C4584.129883,601.451355 4583.978027,600.026001 4583.978027,598.600708
	C4583.967285,476.102356 4583.963867,353.604004 4583.975098,231.105652
	C4583.976074,216.471634 4593.287598,202.468582 4606.579590,196.951843
	C4619.967773,191.395309 4636.098633,194.600388 4646.534668,205.425217
	C4679.363281,239.476486 4712.060547,273.654846 4744.792480,307.799683
	C4769.226074,333.287994 4793.628906,358.805725 4818.055176,384.301117
	C4848.239746,415.806641 4878.440430,447.297028 4908.607422,478.819733
	C4910.072266,480.350525 4911.280273,482.128082 4912.607910,483.790588
	C4912.993652,483.543762 4913.379883,483.296936 4913.765625,483.050110
	C4913.765625,388.851715 4913.765625,294.653320 4913.765625,200.169250
	C4938.104980,200.169250 4962.024902,200.169250 4986.685547,200.169250
	C4986.685547,201.672058 4986.686035,203.249146 4986.686035,204.826218
	C4986.686035,326.324585 4986.693848,447.822937 4986.677734,569.321289
	C4986.674805,589.115417 4976.305664,603.372925 4958.183594,607.396729
	C4945.217285,610.275696 4933.348633,607.350403 4923.883789,597.493958
	C4903.583008,576.354492 4883.413086,555.090149 4863.152344,533.912415
	C4842.199219,512.010620 4821.201660,490.150940 4799.973633,468.021973
z"/>
    <path fill="#FFFFFF" opacity="1.000000" stroke="none"
          d="
M3104.000000,603.000000
	C3087.039307,603.000000 3070.578613,603.000000 3053.728027,603.000000
	C3053.728027,601.143921 3053.727783,599.692383 3053.727783,598.240845
	C3053.727783,499.750214 3053.859619,401.259247 3053.640869,302.769104
	C3053.582031,276.248413 3060.762695,252.688416 3078.726807,232.826401
	C3093.045654,216.995178 3111.124756,207.600540 3131.692871,203.103790
	C3140.386963,201.203003 3149.428223,200.062927 3158.318604,200.022003
	C3214.145020,199.765060 3269.976562,199.555069 3325.800049,200.061707
	C3361.106689,200.382126 3392.517090,212.090912 3417.264160,237.819016
	C3439.212158,260.636810 3452.658936,288.354095 3454.853760,320.052582
	C3456.481201,343.555817 3457.294434,367.534454 3454.532227,390.834442
	C3448.965332,437.790802 3423.155762,471.284271 3379.934082,490.964050
	C3360.122803,499.984406 3339.187744,503.941254 3317.511475,503.974396
	C3265.683105,504.053650 3213.854492,504.000000 3162.026123,504.000000
	C3160.207764,504.000000 3158.389404,504.000000 3156.252930,504.000000
	C3156.252930,479.756683 3156.252930,455.687347 3156.252930,430.968811
	C3157.828125,430.968811 3159.585938,430.968811 3161.343506,430.968811
	C3214.005127,430.968811 3266.669434,431.275543 3319.327148,430.825867
	C3342.099854,430.631378 3361.503662,422.227997 3374.561279,402.496979
	C3380.474121,393.562195 3383.334229,383.373535 3383.322998,372.791168
	C3383.306152,356.680328 3383.604004,340.416382 3381.560791,324.500854
	C3379.237061,306.402374 3370.351318,291.210083 3354.277588,281.240967
	C3343.190186,274.364288 3330.800537,272.445831 3318.018066,272.439728
	C3265.356445,272.414612 3212.694824,272.405701 3160.033203,272.472961
	C3155.723389,272.478485 3151.310791,272.623688 3147.124268,273.528748
	C3133.933838,276.380188 3127.068604,285.353546 3126.229736,300.180542
	C3126.135742,301.842163 3126.179443,303.512268 3126.179199,305.178436
	C3126.177490,402.502533 3126.177490,499.826599 3126.177490,597.150696
	C3126.177490,598.946411 3126.177734,600.742126 3126.177734,603.000000
	C3118.737793,603.000000 3111.618896,603.000000 3104.000000,603.000000
z"/>
    <path fill="#FFFFFF" opacity="1.000000" stroke="none"
          d="
M1519.571045,316.999725
	C1519.571045,277.842163 1519.571045,239.184647 1519.571045,200.205750
	C1543.617432,200.205750 1567.534790,200.205750 1592.112549,200.205750
	C1592.112549,201.799301 1592.112061,203.554092 1592.112671,205.308899
	C1592.134277,271.963501 1592.053955,338.618347 1592.223755,405.272552
	C1592.301025,435.611176 1600.409912,463.363770 1620.355713,486.921021
	C1637.206543,506.822876 1659.359131,517.925110 1683.959717,524.827942
	C1697.969727,528.759094 1712.274048,530.114014 1726.833130,530.038147
	C1765.825195,529.835144 1804.818970,529.968933 1843.812134,529.968933
	C1845.622192,529.968933 1847.432373,529.968994 1849.645386,529.968994
	C1849.645386,419.931061 1849.645386,310.203125 1849.645386,200.180008
	C1873.949219,200.180008 1897.844116,200.180008 1922.272217,200.180008
	C1922.272217,201.807938 1922.272339,203.409348 1922.272339,205.010757
	C1922.272339,324.822906 1922.111572,444.635437 1922.416870,564.446838
	C1922.473389,586.618103 1907.081909,603.024658 1883.483765,603.010315
	C1829.493286,602.977478 1775.498901,603.411133 1721.513550,602.883240
	C1668.450317,602.364441 1620.559326,586.737427 1580.399780,550.913269
	C1555.231201,528.461792 1538.545898,500.591522 1528.760010,468.380310
	C1521.625854,444.897705 1519.457886,420.867340 1519.548828,396.486450
	C1519.647095,370.157898 1519.571045,343.828674 1519.571045,316.999725
z"/>
    <path fill="#FFFFFF" opacity="1.000000" stroke="none"
          d="
M3929.427246,599.967529
	C3928.925781,601.303467 3928.590576,602.631226 3927.887695,602.868347
	C3926.688477,603.272644 3925.258789,602.998840 3923.925781,602.998840
	C3838.444092,602.999878 3752.960938,603.315430 3667.481934,602.833984
	C3636.228760,602.657898 3608.483887,592.489075 3587.283203,568.186157
	C3572.175049,550.867554 3564.099854,530.550415 3564.025146,507.686584
	C3563.727051,416.707581 3563.794434,325.727112 3563.873779,234.747330
	C3563.890137,215.954285 3579.760742,200.174255 3598.649170,199.984558
	C3621.808350,199.751984 3644.971680,199.888229 3668.133057,199.886703
	C3753.281494,199.881119 3838.429688,199.884506 3923.578125,199.884506
	C3925.377441,199.884506 3927.176758,199.884491 3929.181152,199.884491
	C3929.181152,224.166260 3929.181152,248.051102 3929.181152,272.466736
	C3831.554688,272.466736 3734.173340,272.466736 3636.271484,272.466736
	C3636.271484,274.771973 3636.271240,276.553253 3636.271240,278.334503
	C3636.271240,351.318787 3636.250977,424.303131 3636.322510,497.287323
	C3636.326660,501.586060 3636.583252,505.998962 3637.563965,510.160492
	C3640.347656,521.978149 3649.168701,529.061340 3661.453857,529.860168
	C3663.778320,530.011230 3666.117188,529.965149 3668.449463,529.965332
	C3753.431152,529.969849 3838.413086,529.969177 3923.394775,529.969177
	C3925.206787,529.969177 3927.018555,529.969177 3929.428223,529.969177
	C3929.428223,553.318054 3929.428223,576.393372 3929.427246,599.967529
z"/>
    <path fill="#FFFFFF" opacity="1.000000" stroke="none"
          d="
M2372.000000,199.883179
	C2387.484619,199.883179 2402.469238,199.883179 2417.783447,199.883179
	C2417.783447,223.954407 2417.783447,247.859848 2417.783447,272.233887
	C2364.479736,272.233887 2311.077393,272.233887 2257.273926,272.233887
	C2257.273926,382.603333 2257.273926,492.507080 2257.273926,602.705505
	C2232.829346,602.705505 2208.786133,602.705505 2184.253418,602.705505
	C2184.253418,492.630402 2184.253418,382.735107 2184.253418,272.470795
	C2130.334473,272.470795 2076.902832,272.470795 2023.201416,272.470795
	C2023.201416,248.203354 2023.201416,224.304810 2023.201416,199.883179
	C2139.323730,199.883179 2255.411865,199.883179 2372.000000,199.883179
z"/>
    <path fill="#FFFFFF" opacity="1.000000" stroke="none"
          d="
M511.941986,199.924072
	C495.244202,213.889832 480.864655,229.508331 468.388733,246.918869
	C467.330231,248.396011 465.112244,249.822891 463.366211,249.908188
	C441.594604,250.971741 419.810638,251.782700 397.197021,252.692017
	C402.939850,246.262131 408.329193,240.091644 413.863800,234.054291
	C440.829193,204.639572 470.211670,177.857544 502.569672,154.510254
	C537.151672,129.558258 575.927002,114.132347 617.633667,105.829659
	C641.116272,101.154900 664.834778,99.941170 688.628601,102.075867
	C721.927795,105.063354 753.550293,114.459061 784.031799,128.058212
	C815.198975,141.963272 841.728699,162.586121 867.406250,184.567017
	C891.608521,205.285019 913.590332,228.165558 934.406250,251.990555
	C927.181274,251.990555 920.011414,252.198517 912.857788,251.946503
	C898.718628,251.448425 884.592407,250.559875 870.451599,250.148178
	C867.094482,250.050446 865.135498,249.007675 863.177307,246.290192
	C828.555847,198.245148 782.643616,166.456818 725.265747,151.680954
	C697.021790,144.407623 668.340515,142.590057 639.224792,145.899109
	C591.497681,151.323441 549.329651,169.434570 511.941986,199.924072
z"/>
    <path fill="#FFFFFF" opacity="1.000000" stroke="none"
          d="
M3896.683838,388.000244
	C3896.683838,404.805237 3896.683838,421.110260 3896.683838,437.721252
	C3819.780273,437.721252 3743.201416,437.721252 3666.295410,437.721252
	C3666.295410,413.671906 3666.295410,389.461548 3666.295410,365.035583
	C3742.952393,365.035583 3819.543701,365.035583 3896.683838,365.035583
	C3896.683838,372.589722 3896.683838,380.044983 3896.683838,388.000244
z"/>
</svg>